<svg width="1024" height="1024" viewBox="0 0 1024 1024" fill="none" xmlns="http://www.w3.org/2000/svg">
<rect width="1024" height="1024" rx="368.64" fill="white"/>
<path d="M567.543 703L438.451 533.43V703H344.914V319.006H438.451V487.482L566.449 319.006H676.396L527.612 507.174L681.866 703H567.543Z" fill="#913ED2"/>
<path d="M650.498 812.567L445.375 542.22C441.079 536.558 441.346 528.659 446.015 523.3L483.612 480.146C489.787 473.058 500.884 473.331 506.703 480.714L681.5 702.5L750.872 794.467C758.327 804.35 751.276 818.5 738.896 818.5H662.448C657.756 818.5 653.334 816.305 650.498 812.567Z" fill="#913ED2"/>
<rect x="344" y="304" width="95" height="415" rx="15" fill="#913ED2"/>
<path d="M579.972 300.959L551.525 338.403C542.985 349.643 553.286 365.382 567.004 362.055L655 340.713C658.241 339.927 661.127 338.083 663.203 335.473L675.752 319.698C683.55 309.894 676.607 295.417 664.081 295.36L591.984 295.034C587.272 295.013 582.823 297.207 579.972 300.959Z" fill="#913ED2"/>
</svg>
