<svg width="304" height="142" viewBox="0 0 304 142" fill="none" xmlns="http://www.w3.org/2000/svg">
<path d="M53.6 41.84V98H39.92V74.88H18.64V98H4.96V41.84H18.64V63.84H39.92V41.84H53.6ZM77.1556 52.8V64.16H95.4756V74.72H77.1556V87.04H97.8756V98H63.4756V41.84H97.8756V52.8H77.1556ZM135.397 98L123.717 76.8H120.437V98H106.757V41.84H129.717C134.144 41.84 137.904 42.6133 140.997 44.16C144.144 45.7067 146.49 47.84 148.037 50.56C149.584 53.2267 150.357 56.2133 150.357 59.52C150.357 63.2533 149.29 66.5867 147.157 69.52C145.077 72.4533 141.984 74.5333 137.877 75.76L150.837 98H135.397ZM120.437 67.12H128.917C131.424 67.12 133.29 66.5067 134.517 65.28C135.797 64.0533 136.437 62.32 136.437 60.08C136.437 57.9467 135.797 56.2667 134.517 55.04C133.29 53.8133 131.424 53.2 128.917 53.2H120.437V67.12ZM228.166 41.84V75.44C228.166 78.8 228.992 81.3867 230.646 83.2C232.299 85.0133 234.726 85.92 237.926 85.92C241.126 85.92 243.579 85.0133 245.286 83.2C246.992 81.3867 247.846 78.8 247.846 75.44V41.84H261.526V75.36C261.526 80.3733 260.459 84.6133 258.326 88.08C256.192 91.5467 253.312 94.16 249.686 95.92C246.112 97.68 242.112 98.56 237.686 98.56C233.259 98.56 229.286 97.7067 225.766 96C222.299 94.24 219.552 91.6267 217.526 88.16C215.499 84.64 214.486 80.3733 214.486 75.36V41.84H228.166Z" fill="black"/>
<rect x="4" y="41" width="15" height="59" rx="2" fill="black"/>
<rect x="39" y="41" width="14" height="59" rx="2" fill="black"/>
<rect x="62" y="41" width="15" height="59" rx="2" fill="black"/>
<rect x="71" y="41" width="29" height="13" rx="2" fill="black"/>
<rect x="71" y="64" width="29" height="13" rx="2" fill="black"/>
<rect x="71" y="87" width="29" height="13" rx="2" fill="black"/>
<rect x="106" y="41" width="15" height="59" rx="2" fill="black"/>
<path d="M123.858 41.0258H109L114.837 67.3968L121.735 74.7807L135.002 78.4726L136.063 79C141.016 78.6484 152.513 73.7258 151.982 58.9581C151.437 43.7722 136.417 40.6742 128.634 41.0258H123.858Z" fill="black"/>
<path d="M121 67.9384V54.0774L126.333 54.0774C128.23 54.0774 130.649 53.702 132.733 54.6044C134.752 55.4783 137 57.0388 137 60.9276C137 64.0827 135.244 66.2941 132.733 67.2508C130.6 68.3047 124.663 67.9384 121 67.9384Z" fill="white"/>
<path d="M122.662 77.4039C121.909 76.0967 122.819 74.4579 124.327 74.4064L135.057 74.04C135.78 74.0153 136.46 74.383 136.836 75.0015L150.158 96.9627C150.966 98.2956 150.006 100 148.448 100H136.84C136.125 100 135.464 99.6182 135.107 98.9986L122.662 77.4039Z" fill="black"/>
<path d="M191.702 97.4863L173.801 73.9717V97.4863H160.83V44.2372H173.801V67.6L191.551 44.2372H206.797L186.165 70.3308L207.556 97.4863H191.702Z" fill="#913ED2"/>
<path d="M203.206 112.68L174.761 75.1907C174.165 74.4055 174.202 73.3101 174.85 72.567L180.063 66.5828C180.92 65.5999 182.459 65.6377 183.265 66.6615L207.505 97.417L217.125 110.17C218.159 111.541 217.181 113.503 215.464 113.503H204.863C204.212 113.503 203.599 113.199 203.206 112.68Z" fill="#913ED2"/>
<path d="M171.797 42.1562H162.783C161.634 42.1562 160.703 43.0875 160.703 44.2363V97.625C160.703 98.7738 161.634 99.7051 162.783 99.7051H171.797C172.946 99.7051 173.877 98.7738 173.877 97.625V44.2363C173.877 43.0875 172.946 42.1562 171.797 42.1562Z" fill="#913ED2"/>
<path d="M193.426 41.7346L189.481 46.927C188.297 48.4857 189.725 50.6682 191.628 50.2069L203.83 47.2473C204.28 47.1383 204.68 46.8826 204.968 46.5207L206.708 44.3331C207.789 42.9736 206.826 40.966 205.089 40.9581L195.092 40.9129C194.438 40.91 193.821 41.2143 193.426 41.7346Z" fill="#913ED2"/>
<path d="M226 41H216.029C214.913 41 214.013 41.9129 214.029 43.0285L214.499 75.9853C214.515 77.0956 215.432 77.9804 216.542 77.9563L226.043 77.7504C227.131 77.7269 228 76.8386 228 75.7509V43C228 41.8954 227.105 41 226 41Z" fill="black"/>
<path d="M259 41H249.029C247.913 41 247.013 41.9129 247.029 43.0285L247.499 75.9853C247.515 77.0956 248.432 77.9804 249.542 77.9563L259.043 77.7504C260.131 77.7269 261 76.8386 261 75.7509V43C261 41.8954 260.105 41 259 41Z" fill="black"/>
<rect x="270" y="41" width="15" height="57" rx="2" fill="black"/>
<rect x="270" y="86" width="34" height="12" rx="2" fill="black"/>
</svg>
